<mxfile host="app.diagrams.net" agent="Mozilla/5.0 (Windows NT 10.0; Win64; x64) AppleWebKit/537.36 (KHTML, like Gecko) Chrome/131.0.0.0 Safari/537.36" version="25.0.3">
  <diagram name="Page-1" id="xW5sI9-ZsrWBQ1OX7VmH">
    <mxGraphModel dx="1811" dy="972" grid="1" gridSize="10" guides="1" tooltips="1" connect="1" arrows="1" fold="1" page="1" pageScale="1" pageWidth="850" pageHeight="1100" math="0" shadow="0">
      <root>
        <mxCell id="0" />
        <mxCell id="1" parent="0" />
        <mxCell id="-iWui9JQwaAtYez8DiSl-8" value="keypad_read()" style="shape=process;whiteSpace=wrap;html=1;backgroundOutline=1;" vertex="1" parent="1">
          <mxGeometry x="280" y="200" width="120" height="40" as="geometry" />
        </mxCell>
        <mxCell id="-iWui9JQwaAtYez8DiSl-9" value="Инициализация&lt;div&gt;строк и столбцев&lt;/div&gt;" style="rounded=0;whiteSpace=wrap;html=1;" vertex="1" parent="1">
          <mxGeometry x="280" y="280" width="120" height="40" as="geometry" />
        </mxCell>
        <mxCell id="-iWui9JQwaAtYez8DiSl-11" value="" style="endArrow=none;html=1;rounded=0;entryX=0.5;entryY=1;entryDx=0;entryDy=0;" edge="1" parent="1" target="-iWui9JQwaAtYez8DiSl-8">
          <mxGeometry width="50" height="50" relative="1" as="geometry">
            <mxPoint x="340" y="280" as="sourcePoint" />
            <mxPoint x="390" y="280" as="targetPoint" />
          </mxGeometry>
        </mxCell>
        <mxCell id="-iWui9JQwaAtYez8DiSl-14" value="" style="endArrow=none;html=1;rounded=0;entryX=0.5;entryY=1;entryDx=0;entryDy=0;" edge="1" parent="1">
          <mxGeometry width="50" height="50" relative="1" as="geometry">
            <mxPoint x="339.8" y="360" as="sourcePoint" />
            <mxPoint x="339.8" y="320" as="targetPoint" />
          </mxGeometry>
        </mxCell>
        <mxCell id="-iWui9JQwaAtYez8DiSl-15" value="итерация по&amp;nbsp;&lt;div&gt;строкам&lt;/div&gt;" style="shape=hexagon;perimeter=hexagonPerimeter2;whiteSpace=wrap;html=1;fixedSize=1;" vertex="1" parent="1">
          <mxGeometry x="280" y="360" width="120" height="40" as="geometry" />
        </mxCell>
        <mxCell id="-iWui9JQwaAtYez8DiSl-16" value="итерация по&amp;nbsp;&lt;div&gt;столбцам&lt;/div&gt;" style="shape=hexagon;perimeter=hexagonPerimeter2;whiteSpace=wrap;html=1;fixedSize=1;" vertex="1" parent="1">
          <mxGeometry x="280" y="440" width="120" height="40" as="geometry" />
        </mxCell>
        <mxCell id="-iWui9JQwaAtYez8DiSl-17" value="" style="endArrow=none;html=1;rounded=0;entryX=0.5;entryY=1;entryDx=0;entryDy=0;" edge="1" parent="1">
          <mxGeometry width="50" height="50" relative="1" as="geometry">
            <mxPoint x="339.71000000000004" y="440" as="sourcePoint" />
            <mxPoint x="339.71000000000004" y="400" as="targetPoint" />
          </mxGeometry>
        </mxCell>
        <mxCell id="-iWui9JQwaAtYez8DiSl-18" value="строка == 0 ?&amp;nbsp;" style="rhombus;whiteSpace=wrap;html=1;" vertex="1" parent="1">
          <mxGeometry x="285" y="600" width="110" height="40" as="geometry" />
        </mxCell>
        <mxCell id="-iWui9JQwaAtYez8DiSl-36" value="break" style="rounded=0;whiteSpace=wrap;html=1;" vertex="1" parent="1">
          <mxGeometry x="440" y="920" width="80" height="40" as="geometry" />
        </mxCell>
        <mxCell id="-iWui9JQwaAtYez8DiSl-38" value="switch по&lt;div&gt;строкам&lt;/div&gt;" style="rounded=0;whiteSpace=wrap;html=1;" vertex="1" parent="1">
          <mxGeometry x="300" y="520" width="80" height="40" as="geometry" />
        </mxCell>
        <mxCell id="-iWui9JQwaAtYez8DiSl-39" value="switch по&lt;div&gt;столбцам&lt;/div&gt;" style="rounded=0;whiteSpace=wrap;html=1;" vertex="1" parent="1">
          <mxGeometry x="440" y="600" width="80" height="40" as="geometry" />
        </mxCell>
        <mxCell id="-iWui9JQwaAtYez8DiSl-40" value="столбец == 0 ?" style="rhombus;whiteSpace=wrap;html=1;" vertex="1" parent="1">
          <mxGeometry x="410" y="680" width="140" height="40" as="geometry" />
        </mxCell>
        <mxCell id="-iWui9JQwaAtYez8DiSl-41" value="столбец == 1 ?" style="rhombus;whiteSpace=wrap;html=1;" vertex="1" parent="1">
          <mxGeometry x="410" y="760" width="140" height="40" as="geometry" />
        </mxCell>
        <mxCell id="-iWui9JQwaAtYez8DiSl-42" value="столбец == 2 ?" style="rhombus;whiteSpace=wrap;html=1;" vertex="1" parent="1">
          <mxGeometry x="410" y="840" width="140" height="40" as="geometry" />
        </mxCell>
        <mxCell id="-iWui9JQwaAtYez8DiSl-43" value="return &#39;1&#39;" style="rounded=1;whiteSpace=wrap;html=1;" vertex="1" parent="1">
          <mxGeometry x="600" y="680" width="80" height="40" as="geometry" />
        </mxCell>
        <mxCell id="-iWui9JQwaAtYez8DiSl-44" value="return &#39;2&#39;" style="rounded=1;whiteSpace=wrap;html=1;" vertex="1" parent="1">
          <mxGeometry x="600" y="760" width="80" height="40" as="geometry" />
        </mxCell>
        <mxCell id="-iWui9JQwaAtYez8DiSl-45" value="return &#39;3&#39;" style="rounded=1;whiteSpace=wrap;html=1;" vertex="1" parent="1">
          <mxGeometry x="600" y="840" width="80" height="40" as="geometry" />
        </mxCell>
        <mxCell id="-iWui9JQwaAtYez8DiSl-46" value="" style="endArrow=classic;html=1;rounded=0;exitX=1;exitY=0.5;exitDx=0;exitDy=0;entryX=0;entryY=0.5;entryDx=0;entryDy=0;" edge="1" parent="1" source="-iWui9JQwaAtYez8DiSl-40" target="-iWui9JQwaAtYez8DiSl-43">
          <mxGeometry width="50" height="50" relative="1" as="geometry">
            <mxPoint x="610" y="790" as="sourcePoint" />
            <mxPoint x="660" y="740" as="targetPoint" />
          </mxGeometry>
        </mxCell>
        <mxCell id="-iWui9JQwaAtYez8DiSl-47" value="" style="endArrow=classic;html=1;rounded=0;exitX=1;exitY=0.5;exitDx=0;exitDy=0;entryX=0;entryY=0.5;entryDx=0;entryDy=0;" edge="1" parent="1">
          <mxGeometry width="50" height="50" relative="1" as="geometry">
            <mxPoint x="550" y="779.83" as="sourcePoint" />
            <mxPoint x="600" y="779.83" as="targetPoint" />
          </mxGeometry>
        </mxCell>
        <mxCell id="-iWui9JQwaAtYez8DiSl-48" value="" style="endArrow=classic;html=1;rounded=0;exitX=1;exitY=0.5;exitDx=0;exitDy=0;entryX=0;entryY=0.5;entryDx=0;entryDy=0;" edge="1" parent="1">
          <mxGeometry width="50" height="50" relative="1" as="geometry">
            <mxPoint x="550" y="859.83" as="sourcePoint" />
            <mxPoint x="600" y="859.83" as="targetPoint" />
          </mxGeometry>
        </mxCell>
        <mxCell id="-iWui9JQwaAtYez8DiSl-49" value="" style="endArrow=classic;html=1;rounded=0;exitX=1;exitY=0.5;exitDx=0;exitDy=0;entryX=0.5;entryY=0;entryDx=0;entryDy=0;" edge="1" parent="1" target="-iWui9JQwaAtYez8DiSl-41">
          <mxGeometry width="50" height="50" relative="1" as="geometry">
            <mxPoint x="480" y="720" as="sourcePoint" />
            <mxPoint x="530" y="720" as="targetPoint" />
          </mxGeometry>
        </mxCell>
        <mxCell id="-iWui9JQwaAtYez8DiSl-50" value="" style="endArrow=classic;html=1;rounded=0;exitX=1;exitY=0.5;exitDx=0;exitDy=0;entryX=0.5;entryY=0;entryDx=0;entryDy=0;" edge="1" parent="1">
          <mxGeometry width="50" height="50" relative="1" as="geometry">
            <mxPoint x="479.83" y="800" as="sourcePoint" />
            <mxPoint x="479.83" y="840" as="targetPoint" />
          </mxGeometry>
        </mxCell>
        <mxCell id="-iWui9JQwaAtYez8DiSl-51" value="" style="endArrow=classic;html=1;rounded=0;exitX=1;exitY=0.5;exitDx=0;exitDy=0;entryX=0.5;entryY=0;entryDx=0;entryDy=0;" edge="1" parent="1">
          <mxGeometry width="50" height="50" relative="1" as="geometry">
            <mxPoint x="479.71" y="880" as="sourcePoint" />
            <mxPoint x="479.71" y="920" as="targetPoint" />
          </mxGeometry>
        </mxCell>
        <mxCell id="-iWui9JQwaAtYez8DiSl-52" value="" style="endArrow=none;html=1;rounded=0;entryX=0.5;entryY=1;entryDx=0;entryDy=0;exitX=0.5;exitY=0;exitDx=0;exitDy=0;" edge="1" parent="1" source="-iWui9JQwaAtYez8DiSl-40" target="-iWui9JQwaAtYez8DiSl-39">
          <mxGeometry width="50" height="50" relative="1" as="geometry">
            <mxPoint x="470" y="750" as="sourcePoint" />
            <mxPoint x="520" y="700" as="targetPoint" />
          </mxGeometry>
        </mxCell>
        <mxCell id="-iWui9JQwaAtYez8DiSl-53" value="" style="endArrow=none;html=1;rounded=0;entryX=0.5;entryY=1;entryDx=0;entryDy=0;exitX=0.5;exitY=0;exitDx=0;exitDy=0;" edge="1" parent="1">
          <mxGeometry width="50" height="50" relative="1" as="geometry">
            <mxPoint x="339.58000000000004" y="600" as="sourcePoint" />
            <mxPoint x="339.58000000000004" y="560" as="targetPoint" />
          </mxGeometry>
        </mxCell>
        <mxCell id="-iWui9JQwaAtYez8DiSl-54" value="" style="endArrow=classic;html=1;rounded=0;exitX=1;exitY=0.5;exitDx=0;exitDy=0;entryX=0;entryY=0.5;entryDx=0;entryDy=0;" edge="1" parent="1" source="-iWui9JQwaAtYez8DiSl-18" target="-iWui9JQwaAtYez8DiSl-39">
          <mxGeometry width="50" height="50" relative="1" as="geometry">
            <mxPoint x="460" y="690" as="sourcePoint" />
            <mxPoint x="510" y="640" as="targetPoint" />
          </mxGeometry>
        </mxCell>
        <mxCell id="-iWui9JQwaAtYez8DiSl-55" value="строка == 1 ?&amp;nbsp;" style="rhombus;whiteSpace=wrap;html=1;" vertex="1" parent="1">
          <mxGeometry x="282.5" y="1000" width="110" height="40" as="geometry" />
        </mxCell>
        <mxCell id="-iWui9JQwaAtYez8DiSl-56" value="break" style="rounded=0;whiteSpace=wrap;html=1;" vertex="1" parent="1">
          <mxGeometry x="440" y="1320" width="80" height="40" as="geometry" />
        </mxCell>
        <mxCell id="-iWui9JQwaAtYez8DiSl-57" value="switch по&lt;div&gt;столбцам&lt;/div&gt;" style="rounded=0;whiteSpace=wrap;html=1;" vertex="1" parent="1">
          <mxGeometry x="440" y="1000" width="80" height="40" as="geometry" />
        </mxCell>
        <mxCell id="-iWui9JQwaAtYez8DiSl-58" value="столбец == 0 ?" style="rhombus;whiteSpace=wrap;html=1;" vertex="1" parent="1">
          <mxGeometry x="410" y="1080" width="140" height="40" as="geometry" />
        </mxCell>
        <mxCell id="-iWui9JQwaAtYez8DiSl-59" value="столбец == 1 ?" style="rhombus;whiteSpace=wrap;html=1;" vertex="1" parent="1">
          <mxGeometry x="410" y="1160" width="140" height="40" as="geometry" />
        </mxCell>
        <mxCell id="-iWui9JQwaAtYez8DiSl-60" value="столбец == 2 ?" style="rhombus;whiteSpace=wrap;html=1;" vertex="1" parent="1">
          <mxGeometry x="410" y="1240" width="140" height="40" as="geometry" />
        </mxCell>
        <mxCell id="-iWui9JQwaAtYez8DiSl-61" value="return &#39;4&#39;" style="rounded=1;whiteSpace=wrap;html=1;" vertex="1" parent="1">
          <mxGeometry x="600" y="1080" width="80" height="40" as="geometry" />
        </mxCell>
        <mxCell id="-iWui9JQwaAtYez8DiSl-62" value="return &#39;5&#39;" style="rounded=1;whiteSpace=wrap;html=1;" vertex="1" parent="1">
          <mxGeometry x="600" y="1160" width="80" height="40" as="geometry" />
        </mxCell>
        <mxCell id="-iWui9JQwaAtYez8DiSl-63" value="return &#39;6&#39;" style="rounded=1;whiteSpace=wrap;html=1;" vertex="1" parent="1">
          <mxGeometry x="600" y="1240" width="80" height="40" as="geometry" />
        </mxCell>
        <mxCell id="-iWui9JQwaAtYez8DiSl-64" value="" style="endArrow=classic;html=1;rounded=0;exitX=1;exitY=0.5;exitDx=0;exitDy=0;entryX=0;entryY=0.5;entryDx=0;entryDy=0;" edge="1" parent="1" source="-iWui9JQwaAtYez8DiSl-58" target="-iWui9JQwaAtYez8DiSl-61">
          <mxGeometry width="50" height="50" relative="1" as="geometry">
            <mxPoint x="607.5" y="1190" as="sourcePoint" />
            <mxPoint x="657.5" y="1140" as="targetPoint" />
          </mxGeometry>
        </mxCell>
        <mxCell id="-iWui9JQwaAtYez8DiSl-65" value="" style="endArrow=classic;html=1;rounded=0;exitX=1;exitY=0.5;exitDx=0;exitDy=0;entryX=0;entryY=0.5;entryDx=0;entryDy=0;" edge="1" parent="1" target="-iWui9JQwaAtYez8DiSl-62">
          <mxGeometry width="50" height="50" relative="1" as="geometry">
            <mxPoint x="547.5" y="1179.83" as="sourcePoint" />
            <mxPoint x="597.5" y="1179.83" as="targetPoint" />
          </mxGeometry>
        </mxCell>
        <mxCell id="-iWui9JQwaAtYez8DiSl-66" value="" style="endArrow=classic;html=1;rounded=0;exitX=1;exitY=0.5;exitDx=0;exitDy=0;entryX=0;entryY=0.5;entryDx=0;entryDy=0;" edge="1" parent="1" target="-iWui9JQwaAtYez8DiSl-63">
          <mxGeometry width="50" height="50" relative="1" as="geometry">
            <mxPoint x="547.5" y="1259.83" as="sourcePoint" />
            <mxPoint x="597.5" y="1259.83" as="targetPoint" />
          </mxGeometry>
        </mxCell>
        <mxCell id="-iWui9JQwaAtYez8DiSl-67" value="" style="endArrow=classic;html=1;rounded=0;exitX=0.5;exitY=1;exitDx=0;exitDy=0;entryX=0.5;entryY=0;entryDx=0;entryDy=0;" edge="1" parent="1" target="-iWui9JQwaAtYez8DiSl-59" source="-iWui9JQwaAtYez8DiSl-58">
          <mxGeometry width="50" height="50" relative="1" as="geometry">
            <mxPoint x="477.5" y="1120" as="sourcePoint" />
            <mxPoint x="527.5" y="1120" as="targetPoint" />
          </mxGeometry>
        </mxCell>
        <mxCell id="-iWui9JQwaAtYez8DiSl-68" value="" style="endArrow=classic;html=1;rounded=0;exitX=0.5;exitY=1;exitDx=0;exitDy=0;entryX=0.5;entryY=0;entryDx=0;entryDy=0;" edge="1" parent="1" source="-iWui9JQwaAtYez8DiSl-59" target="-iWui9JQwaAtYez8DiSl-60">
          <mxGeometry width="50" height="50" relative="1" as="geometry">
            <mxPoint x="477.33" y="1200" as="sourcePoint" />
            <mxPoint x="477.33" y="1240" as="targetPoint" />
          </mxGeometry>
        </mxCell>
        <mxCell id="-iWui9JQwaAtYez8DiSl-69" value="" style="endArrow=classic;html=1;rounded=0;exitX=0.5;exitY=1;exitDx=0;exitDy=0;entryX=0.5;entryY=0;entryDx=0;entryDy=0;" edge="1" parent="1" source="-iWui9JQwaAtYez8DiSl-60" target="-iWui9JQwaAtYez8DiSl-56">
          <mxGeometry width="50" height="50" relative="1" as="geometry">
            <mxPoint x="477.21" y="1280" as="sourcePoint" />
            <mxPoint x="477.21" y="1320" as="targetPoint" />
          </mxGeometry>
        </mxCell>
        <mxCell id="-iWui9JQwaAtYez8DiSl-70" value="" style="endArrow=none;html=1;rounded=0;entryX=0.5;entryY=1;entryDx=0;entryDy=0;exitX=0.5;exitY=0;exitDx=0;exitDy=0;" edge="1" parent="1" source="-iWui9JQwaAtYez8DiSl-58" target="-iWui9JQwaAtYez8DiSl-57">
          <mxGeometry width="50" height="50" relative="1" as="geometry">
            <mxPoint x="467.5" y="1150" as="sourcePoint" />
            <mxPoint x="517.5" y="1100" as="targetPoint" />
          </mxGeometry>
        </mxCell>
        <mxCell id="-iWui9JQwaAtYez8DiSl-71" value="" style="endArrow=classic;html=1;rounded=0;exitX=1;exitY=0.5;exitDx=0;exitDy=0;entryX=0;entryY=0.5;entryDx=0;entryDy=0;" edge="1" parent="1" source="-iWui9JQwaAtYez8DiSl-55" target="-iWui9JQwaAtYez8DiSl-57">
          <mxGeometry width="50" height="50" relative="1" as="geometry">
            <mxPoint x="457.5" y="1090" as="sourcePoint" />
            <mxPoint x="507.5" y="1040" as="targetPoint" />
          </mxGeometry>
        </mxCell>
        <mxCell id="-iWui9JQwaAtYez8DiSl-72" value="" style="endArrow=classic;html=1;rounded=0;exitX=0.5;exitY=1;exitDx=0;exitDy=0;entryX=0.5;entryY=0;entryDx=0;entryDy=0;" edge="1" parent="1" source="-iWui9JQwaAtYez8DiSl-18" target="-iWui9JQwaAtYez8DiSl-55">
          <mxGeometry width="50" height="50" relative="1" as="geometry">
            <mxPoint x="430" y="930" as="sourcePoint" />
            <mxPoint x="480" y="880" as="targetPoint" />
          </mxGeometry>
        </mxCell>
        <mxCell id="-iWui9JQwaAtYez8DiSl-73" value="строка == 2 ?&amp;nbsp;" style="rhombus;whiteSpace=wrap;html=1;" vertex="1" parent="1">
          <mxGeometry x="282.5" y="1400" width="110" height="40" as="geometry" />
        </mxCell>
        <mxCell id="-iWui9JQwaAtYez8DiSl-74" value="break" style="rounded=0;whiteSpace=wrap;html=1;" vertex="1" parent="1">
          <mxGeometry x="437.5" y="1720" width="80" height="40" as="geometry" />
        </mxCell>
        <mxCell id="-iWui9JQwaAtYez8DiSl-75" value="switch по&lt;div&gt;столбцам&lt;/div&gt;" style="rounded=0;whiteSpace=wrap;html=1;" vertex="1" parent="1">
          <mxGeometry x="437.5" y="1400" width="80" height="40" as="geometry" />
        </mxCell>
        <mxCell id="-iWui9JQwaAtYez8DiSl-76" value="столбец == 0 ?" style="rhombus;whiteSpace=wrap;html=1;" vertex="1" parent="1">
          <mxGeometry x="407.5" y="1480" width="140" height="40" as="geometry" />
        </mxCell>
        <mxCell id="-iWui9JQwaAtYez8DiSl-77" value="столбец == 1 ?" style="rhombus;whiteSpace=wrap;html=1;" vertex="1" parent="1">
          <mxGeometry x="407.5" y="1560" width="140" height="40" as="geometry" />
        </mxCell>
        <mxCell id="-iWui9JQwaAtYez8DiSl-78" value="столбец == 2 ?" style="rhombus;whiteSpace=wrap;html=1;" vertex="1" parent="1">
          <mxGeometry x="407.5" y="1640" width="140" height="40" as="geometry" />
        </mxCell>
        <mxCell id="-iWui9JQwaAtYez8DiSl-79" value="return &#39;7&#39;" style="rounded=1;whiteSpace=wrap;html=1;" vertex="1" parent="1">
          <mxGeometry x="597.5" y="1480" width="80" height="40" as="geometry" />
        </mxCell>
        <mxCell id="-iWui9JQwaAtYez8DiSl-80" value="return &#39;8&#39;" style="rounded=1;whiteSpace=wrap;html=1;" vertex="1" parent="1">
          <mxGeometry x="597.5" y="1560" width="80" height="40" as="geometry" />
        </mxCell>
        <mxCell id="-iWui9JQwaAtYez8DiSl-81" value="return &#39;9&#39;" style="rounded=1;whiteSpace=wrap;html=1;" vertex="1" parent="1">
          <mxGeometry x="597.5" y="1640" width="80" height="40" as="geometry" />
        </mxCell>
        <mxCell id="-iWui9JQwaAtYez8DiSl-82" value="" style="endArrow=classic;html=1;rounded=0;exitX=1;exitY=0.5;exitDx=0;exitDy=0;entryX=0;entryY=0.5;entryDx=0;entryDy=0;" edge="1" parent="1" source="-iWui9JQwaAtYez8DiSl-76" target="-iWui9JQwaAtYez8DiSl-79">
          <mxGeometry width="50" height="50" relative="1" as="geometry">
            <mxPoint x="605" y="1590" as="sourcePoint" />
            <mxPoint x="655" y="1540" as="targetPoint" />
          </mxGeometry>
        </mxCell>
        <mxCell id="-iWui9JQwaAtYez8DiSl-83" value="" style="endArrow=classic;html=1;rounded=0;exitX=1;exitY=0.5;exitDx=0;exitDy=0;entryX=0;entryY=0.5;entryDx=0;entryDy=0;" edge="1" parent="1" target="-iWui9JQwaAtYez8DiSl-80">
          <mxGeometry width="50" height="50" relative="1" as="geometry">
            <mxPoint x="545" y="1579.83" as="sourcePoint" />
            <mxPoint x="595" y="1579.83" as="targetPoint" />
          </mxGeometry>
        </mxCell>
        <mxCell id="-iWui9JQwaAtYez8DiSl-84" value="" style="endArrow=classic;html=1;rounded=0;exitX=1;exitY=0.5;exitDx=0;exitDy=0;entryX=0;entryY=0.5;entryDx=0;entryDy=0;" edge="1" parent="1" target="-iWui9JQwaAtYez8DiSl-81">
          <mxGeometry width="50" height="50" relative="1" as="geometry">
            <mxPoint x="545" y="1659.83" as="sourcePoint" />
            <mxPoint x="595" y="1659.83" as="targetPoint" />
          </mxGeometry>
        </mxCell>
        <mxCell id="-iWui9JQwaAtYez8DiSl-85" value="" style="endArrow=classic;html=1;rounded=0;exitX=0.5;exitY=1;exitDx=0;exitDy=0;entryX=0.5;entryY=0;entryDx=0;entryDy=0;" edge="1" parent="1" source="-iWui9JQwaAtYez8DiSl-76" target="-iWui9JQwaAtYez8DiSl-77">
          <mxGeometry width="50" height="50" relative="1" as="geometry">
            <mxPoint x="475" y="1520" as="sourcePoint" />
            <mxPoint x="525" y="1520" as="targetPoint" />
          </mxGeometry>
        </mxCell>
        <mxCell id="-iWui9JQwaAtYez8DiSl-86" value="" style="endArrow=classic;html=1;rounded=0;exitX=0.5;exitY=1;exitDx=0;exitDy=0;entryX=0.5;entryY=0;entryDx=0;entryDy=0;" edge="1" parent="1" source="-iWui9JQwaAtYez8DiSl-77" target="-iWui9JQwaAtYez8DiSl-78">
          <mxGeometry width="50" height="50" relative="1" as="geometry">
            <mxPoint x="474.83" y="1600" as="sourcePoint" />
            <mxPoint x="474.83" y="1640" as="targetPoint" />
          </mxGeometry>
        </mxCell>
        <mxCell id="-iWui9JQwaAtYez8DiSl-87" value="" style="endArrow=classic;html=1;rounded=0;exitX=0.5;exitY=1;exitDx=0;exitDy=0;entryX=0.5;entryY=0;entryDx=0;entryDy=0;" edge="1" parent="1" source="-iWui9JQwaAtYez8DiSl-78" target="-iWui9JQwaAtYez8DiSl-74">
          <mxGeometry width="50" height="50" relative="1" as="geometry">
            <mxPoint x="474.71" y="1680" as="sourcePoint" />
            <mxPoint x="474.71" y="1720" as="targetPoint" />
          </mxGeometry>
        </mxCell>
        <mxCell id="-iWui9JQwaAtYez8DiSl-88" value="" style="endArrow=none;html=1;rounded=0;entryX=0.5;entryY=1;entryDx=0;entryDy=0;exitX=0.5;exitY=0;exitDx=0;exitDy=0;" edge="1" parent="1" source="-iWui9JQwaAtYez8DiSl-76" target="-iWui9JQwaAtYez8DiSl-75">
          <mxGeometry width="50" height="50" relative="1" as="geometry">
            <mxPoint x="465" y="1550" as="sourcePoint" />
            <mxPoint x="515" y="1500" as="targetPoint" />
          </mxGeometry>
        </mxCell>
        <mxCell id="-iWui9JQwaAtYez8DiSl-89" value="" style="endArrow=classic;html=1;rounded=0;exitX=1;exitY=0.5;exitDx=0;exitDy=0;entryX=0;entryY=0.5;entryDx=0;entryDy=0;" edge="1" parent="1" source="-iWui9JQwaAtYez8DiSl-73" target="-iWui9JQwaAtYez8DiSl-75">
          <mxGeometry width="50" height="50" relative="1" as="geometry">
            <mxPoint x="455" y="1490" as="sourcePoint" />
            <mxPoint x="505" y="1440" as="targetPoint" />
          </mxGeometry>
        </mxCell>
        <mxCell id="-iWui9JQwaAtYez8DiSl-90" value="" style="endArrow=classic;html=1;rounded=0;exitX=0.5;exitY=1;exitDx=0;exitDy=0;entryX=0.5;entryY=0;entryDx=0;entryDy=0;" edge="1" parent="1" target="-iWui9JQwaAtYez8DiSl-73">
          <mxGeometry width="50" height="50" relative="1" as="geometry">
            <mxPoint x="337.5" y="1040" as="sourcePoint" />
            <mxPoint x="477.5" y="1280" as="targetPoint" />
          </mxGeometry>
        </mxCell>
        <mxCell id="-iWui9JQwaAtYez8DiSl-91" value="строка == 3 ?&amp;nbsp;" style="rhombus;whiteSpace=wrap;html=1;" vertex="1" parent="1">
          <mxGeometry x="282.5" y="1800" width="110" height="40" as="geometry" />
        </mxCell>
        <mxCell id="-iWui9JQwaAtYez8DiSl-92" value="break" style="rounded=0;whiteSpace=wrap;html=1;" vertex="1" parent="1">
          <mxGeometry x="436.25" y="2120" width="80" height="40" as="geometry" />
        </mxCell>
        <mxCell id="-iWui9JQwaAtYez8DiSl-93" value="switch по&lt;div&gt;столбцам&lt;/div&gt;" style="rounded=0;whiteSpace=wrap;html=1;" vertex="1" parent="1">
          <mxGeometry x="436.25" y="1800" width="80" height="40" as="geometry" />
        </mxCell>
        <mxCell id="-iWui9JQwaAtYez8DiSl-94" value="столбец == 0 ?" style="rhombus;whiteSpace=wrap;html=1;" vertex="1" parent="1">
          <mxGeometry x="406.25" y="1880" width="140" height="40" as="geometry" />
        </mxCell>
        <mxCell id="-iWui9JQwaAtYez8DiSl-95" value="столбец == 1 ?" style="rhombus;whiteSpace=wrap;html=1;" vertex="1" parent="1">
          <mxGeometry x="406.25" y="1960" width="140" height="40" as="geometry" />
        </mxCell>
        <mxCell id="-iWui9JQwaAtYez8DiSl-96" value="столбец == 2 ?" style="rhombus;whiteSpace=wrap;html=1;" vertex="1" parent="1">
          <mxGeometry x="406.25" y="2040" width="140" height="40" as="geometry" />
        </mxCell>
        <mxCell id="-iWui9JQwaAtYez8DiSl-97" value="return &#39;*&#39;" style="rounded=1;whiteSpace=wrap;html=1;" vertex="1" parent="1">
          <mxGeometry x="596.25" y="1880" width="80" height="40" as="geometry" />
        </mxCell>
        <mxCell id="-iWui9JQwaAtYez8DiSl-98" value="return &#39;0&#39;" style="rounded=1;whiteSpace=wrap;html=1;" vertex="1" parent="1">
          <mxGeometry x="596.25" y="1960" width="80" height="40" as="geometry" />
        </mxCell>
        <mxCell id="-iWui9JQwaAtYez8DiSl-99" value="return &#39;#&#39;" style="rounded=1;whiteSpace=wrap;html=1;" vertex="1" parent="1">
          <mxGeometry x="596.25" y="2040" width="80" height="40" as="geometry" />
        </mxCell>
        <mxCell id="-iWui9JQwaAtYez8DiSl-100" value="" style="endArrow=classic;html=1;rounded=0;exitX=1;exitY=0.5;exitDx=0;exitDy=0;entryX=0;entryY=0.5;entryDx=0;entryDy=0;" edge="1" parent="1" source="-iWui9JQwaAtYez8DiSl-94" target="-iWui9JQwaAtYez8DiSl-97">
          <mxGeometry width="50" height="50" relative="1" as="geometry">
            <mxPoint x="603.75" y="1990" as="sourcePoint" />
            <mxPoint x="653.75" y="1940" as="targetPoint" />
          </mxGeometry>
        </mxCell>
        <mxCell id="-iWui9JQwaAtYez8DiSl-101" value="" style="endArrow=classic;html=1;rounded=0;exitX=1;exitY=0.5;exitDx=0;exitDy=0;entryX=0;entryY=0.5;entryDx=0;entryDy=0;" edge="1" parent="1" target="-iWui9JQwaAtYez8DiSl-98">
          <mxGeometry width="50" height="50" relative="1" as="geometry">
            <mxPoint x="543.75" y="1979.83" as="sourcePoint" />
            <mxPoint x="593.75" y="1979.83" as="targetPoint" />
          </mxGeometry>
        </mxCell>
        <mxCell id="-iWui9JQwaAtYez8DiSl-102" value="" style="endArrow=classic;html=1;rounded=0;exitX=1;exitY=0.5;exitDx=0;exitDy=0;entryX=0;entryY=0.5;entryDx=0;entryDy=0;" edge="1" parent="1" target="-iWui9JQwaAtYez8DiSl-99">
          <mxGeometry width="50" height="50" relative="1" as="geometry">
            <mxPoint x="543.75" y="2059.83" as="sourcePoint" />
            <mxPoint x="593.75" y="2059.83" as="targetPoint" />
          </mxGeometry>
        </mxCell>
        <mxCell id="-iWui9JQwaAtYez8DiSl-103" value="" style="endArrow=classic;html=1;rounded=0;exitX=0.5;exitY=1;exitDx=0;exitDy=0;entryX=0.5;entryY=0;entryDx=0;entryDy=0;" edge="1" parent="1" source="-iWui9JQwaAtYez8DiSl-94" target="-iWui9JQwaAtYez8DiSl-95">
          <mxGeometry width="50" height="50" relative="1" as="geometry">
            <mxPoint x="473.75" y="1920" as="sourcePoint" />
            <mxPoint x="523.75" y="1920" as="targetPoint" />
          </mxGeometry>
        </mxCell>
        <mxCell id="-iWui9JQwaAtYez8DiSl-104" value="" style="endArrow=classic;html=1;rounded=0;exitX=0.5;exitY=1;exitDx=0;exitDy=0;entryX=0.5;entryY=0;entryDx=0;entryDy=0;" edge="1" parent="1" source="-iWui9JQwaAtYez8DiSl-95" target="-iWui9JQwaAtYez8DiSl-96">
          <mxGeometry width="50" height="50" relative="1" as="geometry">
            <mxPoint x="473.58" y="2000" as="sourcePoint" />
            <mxPoint x="473.58" y="2040" as="targetPoint" />
          </mxGeometry>
        </mxCell>
        <mxCell id="-iWui9JQwaAtYez8DiSl-105" value="" style="endArrow=classic;html=1;rounded=0;exitX=0.5;exitY=1;exitDx=0;exitDy=0;entryX=0.5;entryY=0;entryDx=0;entryDy=0;" edge="1" parent="1" source="-iWui9JQwaAtYez8DiSl-96" target="-iWui9JQwaAtYez8DiSl-92">
          <mxGeometry width="50" height="50" relative="1" as="geometry">
            <mxPoint x="473.46" y="2080" as="sourcePoint" />
            <mxPoint x="473.46" y="2120" as="targetPoint" />
          </mxGeometry>
        </mxCell>
        <mxCell id="-iWui9JQwaAtYez8DiSl-106" value="" style="endArrow=none;html=1;rounded=0;entryX=0.5;entryY=1;entryDx=0;entryDy=0;exitX=0.5;exitY=0;exitDx=0;exitDy=0;" edge="1" parent="1" source="-iWui9JQwaAtYez8DiSl-94" target="-iWui9JQwaAtYez8DiSl-93">
          <mxGeometry width="50" height="50" relative="1" as="geometry">
            <mxPoint x="463.75" y="1950" as="sourcePoint" />
            <mxPoint x="513.75" y="1900" as="targetPoint" />
          </mxGeometry>
        </mxCell>
        <mxCell id="-iWui9JQwaAtYez8DiSl-107" value="" style="endArrow=classic;html=1;rounded=0;exitX=1;exitY=0.5;exitDx=0;exitDy=0;entryX=0;entryY=0.5;entryDx=0;entryDy=0;" edge="1" parent="1" source="-iWui9JQwaAtYez8DiSl-91" target="-iWui9JQwaAtYez8DiSl-93">
          <mxGeometry width="50" height="50" relative="1" as="geometry">
            <mxPoint x="453.75" y="1890" as="sourcePoint" />
            <mxPoint x="503.75" y="1840" as="targetPoint" />
          </mxGeometry>
        </mxCell>
        <mxCell id="-iWui9JQwaAtYez8DiSl-108" value="" style="endArrow=classic;html=1;rounded=0;exitX=0.5;exitY=1;exitDx=0;exitDy=0;entryX=0.5;entryY=0;entryDx=0;entryDy=0;" edge="1" parent="1" target="-iWui9JQwaAtYez8DiSl-91">
          <mxGeometry width="50" height="50" relative="1" as="geometry">
            <mxPoint x="336.25" y="1440" as="sourcePoint" />
            <mxPoint x="476.25" y="1680" as="targetPoint" />
          </mxGeometry>
        </mxCell>
        <mxCell id="-iWui9JQwaAtYez8DiSl-109" value="Да" style="text;html=1;align=center;verticalAlign=middle;whiteSpace=wrap;rounded=0;" vertex="1" parent="1">
          <mxGeometry x="376.25" y="590" width="60" height="30" as="geometry" />
        </mxCell>
        <mxCell id="-iWui9JQwaAtYez8DiSl-110" value="Да" style="text;html=1;align=center;verticalAlign=middle;whiteSpace=wrap;rounded=0;" vertex="1" parent="1">
          <mxGeometry x="537.5" y="670" width="60" height="30" as="geometry" />
        </mxCell>
        <mxCell id="-iWui9JQwaAtYez8DiSl-111" value="Да" style="text;html=1;align=center;verticalAlign=middle;whiteSpace=wrap;rounded=0;" vertex="1" parent="1">
          <mxGeometry x="540" y="750" width="60" height="30" as="geometry" />
        </mxCell>
        <mxCell id="-iWui9JQwaAtYez8DiSl-112" value="Да" style="text;html=1;align=center;verticalAlign=middle;whiteSpace=wrap;rounded=0;" vertex="1" parent="1">
          <mxGeometry x="537.5" y="830" width="60" height="30" as="geometry" />
        </mxCell>
        <mxCell id="-iWui9JQwaAtYez8DiSl-113" value="Да" style="text;html=1;align=center;verticalAlign=middle;whiteSpace=wrap;rounded=0;" vertex="1" parent="1">
          <mxGeometry x="536.25" y="1070" width="60" height="30" as="geometry" />
        </mxCell>
        <mxCell id="-iWui9JQwaAtYez8DiSl-114" value="Да" style="text;html=1;align=center;verticalAlign=middle;whiteSpace=wrap;rounded=0;" vertex="1" parent="1">
          <mxGeometry x="536.25" y="1150" width="60" height="30" as="geometry" />
        </mxCell>
        <mxCell id="-iWui9JQwaAtYez8DiSl-115" value="Да" style="text;html=1;align=center;verticalAlign=middle;whiteSpace=wrap;rounded=0;" vertex="1" parent="1">
          <mxGeometry x="536.25" y="1230" width="60" height="30" as="geometry" />
        </mxCell>
        <mxCell id="-iWui9JQwaAtYez8DiSl-116" value="Да" style="text;html=1;align=center;verticalAlign=middle;whiteSpace=wrap;rounded=0;" vertex="1" parent="1">
          <mxGeometry x="537.5" y="1470" width="60" height="30" as="geometry" />
        </mxCell>
        <mxCell id="-iWui9JQwaAtYez8DiSl-117" value="Да" style="text;html=1;align=center;verticalAlign=middle;whiteSpace=wrap;rounded=0;" vertex="1" parent="1">
          <mxGeometry x="536.25" y="1550" width="60" height="30" as="geometry" />
        </mxCell>
        <mxCell id="-iWui9JQwaAtYez8DiSl-118" value="Да" style="text;html=1;align=center;verticalAlign=middle;whiteSpace=wrap;rounded=0;" vertex="1" parent="1">
          <mxGeometry x="536.25" y="1630" width="60" height="30" as="geometry" />
        </mxCell>
        <mxCell id="-iWui9JQwaAtYez8DiSl-119" value="Да" style="text;html=1;align=center;verticalAlign=middle;whiteSpace=wrap;rounded=0;" vertex="1" parent="1">
          <mxGeometry x="536.25" y="1870" width="60" height="30" as="geometry" />
        </mxCell>
        <mxCell id="-iWui9JQwaAtYez8DiSl-120" value="Да" style="text;html=1;align=center;verticalAlign=middle;whiteSpace=wrap;rounded=0;" vertex="1" parent="1">
          <mxGeometry x="537.5" y="1950" width="60" height="30" as="geometry" />
        </mxCell>
        <mxCell id="-iWui9JQwaAtYez8DiSl-121" value="Да" style="text;html=1;align=center;verticalAlign=middle;whiteSpace=wrap;rounded=0;" vertex="1" parent="1">
          <mxGeometry x="540" y="2030" width="60" height="30" as="geometry" />
        </mxCell>
        <mxCell id="-iWui9JQwaAtYez8DiSl-122" value="Да" style="text;html=1;align=center;verticalAlign=middle;whiteSpace=wrap;rounded=0;" vertex="1" parent="1">
          <mxGeometry x="376.25" y="990" width="60" height="30" as="geometry" />
        </mxCell>
        <mxCell id="-iWui9JQwaAtYez8DiSl-123" value="Да" style="text;html=1;align=center;verticalAlign=middle;whiteSpace=wrap;rounded=0;" vertex="1" parent="1">
          <mxGeometry x="376.25" y="1390" width="60" height="30" as="geometry" />
        </mxCell>
        <mxCell id="-iWui9JQwaAtYez8DiSl-124" value="Да" style="text;html=1;align=center;verticalAlign=middle;whiteSpace=wrap;rounded=0;" vertex="1" parent="1">
          <mxGeometry x="376.25" y="1790" width="60" height="30" as="geometry" />
        </mxCell>
        <mxCell id="-iWui9JQwaAtYez8DiSl-125" value="Нет" style="text;html=1;align=center;verticalAlign=middle;whiteSpace=wrap;rounded=0;" vertex="1" parent="1">
          <mxGeometry x="280" y="650" width="60" height="30" as="geometry" />
        </mxCell>
        <mxCell id="-iWui9JQwaAtYez8DiSl-126" value="Нет" style="text;html=1;align=center;verticalAlign=middle;whiteSpace=wrap;rounded=0;" vertex="1" parent="1">
          <mxGeometry x="420" y="730" width="60" height="30" as="geometry" />
        </mxCell>
        <mxCell id="-iWui9JQwaAtYez8DiSl-127" value="Нет" style="text;html=1;align=center;verticalAlign=middle;whiteSpace=wrap;rounded=0;" vertex="1" parent="1">
          <mxGeometry x="420" y="810" width="60" height="30" as="geometry" />
        </mxCell>
        <mxCell id="-iWui9JQwaAtYez8DiSl-128" value="Нет" style="text;html=1;align=center;verticalAlign=middle;whiteSpace=wrap;rounded=0;" vertex="1" parent="1">
          <mxGeometry x="420" y="890" width="60" height="30" as="geometry" />
        </mxCell>
        <mxCell id="-iWui9JQwaAtYez8DiSl-129" value="Нет" style="text;html=1;align=center;verticalAlign=middle;whiteSpace=wrap;rounded=0;" vertex="1" parent="1">
          <mxGeometry x="278.75" y="1040" width="60" height="30" as="geometry" />
        </mxCell>
        <mxCell id="-iWui9JQwaAtYez8DiSl-130" value="Нет" style="text;html=1;align=center;verticalAlign=middle;whiteSpace=wrap;rounded=0;" vertex="1" parent="1">
          <mxGeometry x="420" y="1050" width="60" height="30" as="geometry" />
        </mxCell>
        <mxCell id="-iWui9JQwaAtYez8DiSl-131" value="Нет" style="text;html=1;align=center;verticalAlign=middle;whiteSpace=wrap;rounded=0;" vertex="1" parent="1">
          <mxGeometry x="420" y="1130" width="60" height="30" as="geometry" />
        </mxCell>
        <mxCell id="-iWui9JQwaAtYez8DiSl-132" value="Нет" style="text;html=1;align=center;verticalAlign=middle;whiteSpace=wrap;rounded=0;" vertex="1" parent="1">
          <mxGeometry x="420" y="1210" width="60" height="30" as="geometry" />
        </mxCell>
        <mxCell id="-iWui9JQwaAtYez8DiSl-133" value="Нет" style="text;html=1;align=center;verticalAlign=middle;whiteSpace=wrap;rounded=0;" vertex="1" parent="1">
          <mxGeometry x="420" y="1290" width="60" height="30" as="geometry" />
        </mxCell>
        <mxCell id="-iWui9JQwaAtYez8DiSl-134" value="Нет" style="text;html=1;align=center;verticalAlign=middle;whiteSpace=wrap;rounded=0;" vertex="1" parent="1">
          <mxGeometry x="420" y="1450" width="60" height="30" as="geometry" />
        </mxCell>
        <mxCell id="-iWui9JQwaAtYez8DiSl-135" value="Нет" style="text;html=1;align=center;verticalAlign=middle;whiteSpace=wrap;rounded=0;" vertex="1" parent="1">
          <mxGeometry x="420" y="1530" width="60" height="30" as="geometry" />
        </mxCell>
        <mxCell id="-iWui9JQwaAtYez8DiSl-136" value="Нет" style="text;html=1;align=center;verticalAlign=middle;whiteSpace=wrap;rounded=0;" vertex="1" parent="1">
          <mxGeometry x="420" y="1610" width="60" height="30" as="geometry" />
        </mxCell>
        <mxCell id="-iWui9JQwaAtYez8DiSl-137" value="Нет" style="text;html=1;align=center;verticalAlign=middle;whiteSpace=wrap;rounded=0;" vertex="1" parent="1">
          <mxGeometry x="420" y="1690" width="60" height="30" as="geometry" />
        </mxCell>
        <mxCell id="-iWui9JQwaAtYez8DiSl-138" value="Нет" style="text;html=1;align=center;verticalAlign=middle;whiteSpace=wrap;rounded=0;" vertex="1" parent="1">
          <mxGeometry x="410" y="1850" width="60" height="30" as="geometry" />
        </mxCell>
        <mxCell id="-iWui9JQwaAtYez8DiSl-139" value="Нет" style="text;html=1;align=center;verticalAlign=middle;whiteSpace=wrap;rounded=0;" vertex="1" parent="1">
          <mxGeometry x="410" y="1930" width="60" height="30" as="geometry" />
        </mxCell>
        <mxCell id="-iWui9JQwaAtYez8DiSl-140" value="Нет" style="text;html=1;align=center;verticalAlign=middle;whiteSpace=wrap;rounded=0;" vertex="1" parent="1">
          <mxGeometry x="407.5" y="2010" width="60" height="30" as="geometry" />
        </mxCell>
        <mxCell id="-iWui9JQwaAtYez8DiSl-141" value="Нет" style="text;html=1;align=center;verticalAlign=middle;whiteSpace=wrap;rounded=0;" vertex="1" parent="1">
          <mxGeometry x="410" y="2090" width="60" height="30" as="geometry" />
        </mxCell>
        <mxCell id="-iWui9JQwaAtYez8DiSl-142" value="" style="endArrow=none;html=1;rounded=0;entryX=0.5;entryY=1;entryDx=0;entryDy=0;" edge="1" parent="1">
          <mxGeometry width="50" height="50" relative="1" as="geometry">
            <mxPoint x="338.75000000000006" y="520" as="sourcePoint" />
            <mxPoint x="338.75000000000006" y="480" as="targetPoint" />
          </mxGeometry>
        </mxCell>
        <mxCell id="-iWui9JQwaAtYez8DiSl-143" value="" style="endArrow=classic;html=1;rounded=0;entryX=0;entryY=0.5;entryDx=0;entryDy=0;" edge="1" parent="1" target="-iWui9JQwaAtYez8DiSl-16">
          <mxGeometry width="50" height="50" relative="1" as="geometry">
            <mxPoint x="240" y="2140" as="sourcePoint" />
            <mxPoint x="280" y="680" as="targetPoint" />
            <Array as="points">
              <mxPoint x="240" y="460" />
            </Array>
          </mxGeometry>
        </mxCell>
        <mxCell id="-iWui9JQwaAtYez8DiSl-144" value="" style="endArrow=none;html=1;rounded=0;entryX=0;entryY=0.5;entryDx=0;entryDy=0;" edge="1" parent="1" target="-iWui9JQwaAtYez8DiSl-92">
          <mxGeometry width="50" height="50" relative="1" as="geometry">
            <mxPoint x="240" y="2140" as="sourcePoint" />
            <mxPoint x="370" y="2040" as="targetPoint" />
          </mxGeometry>
        </mxCell>
        <mxCell id="-iWui9JQwaAtYez8DiSl-145" value="" style="endArrow=none;html=1;rounded=0;entryX=0;entryY=0.5;entryDx=0;entryDy=0;" edge="1" parent="1">
          <mxGeometry width="50" height="50" relative="1" as="geometry">
            <mxPoint x="240" y="1740" as="sourcePoint" />
            <mxPoint x="438" y="1739.83" as="targetPoint" />
          </mxGeometry>
        </mxCell>
        <mxCell id="-iWui9JQwaAtYez8DiSl-146" value="" style="endArrow=none;html=1;rounded=0;entryX=0;entryY=0.5;entryDx=0;entryDy=0;" edge="1" parent="1" target="-iWui9JQwaAtYez8DiSl-56">
          <mxGeometry width="50" height="50" relative="1" as="geometry">
            <mxPoint x="240" y="1340" as="sourcePoint" />
            <mxPoint x="400" y="1240" as="targetPoint" />
          </mxGeometry>
        </mxCell>
        <mxCell id="-iWui9JQwaAtYez8DiSl-147" value="" style="endArrow=none;html=1;rounded=0;entryX=0;entryY=0.5;entryDx=0;entryDy=0;" edge="1" parent="1" target="-iWui9JQwaAtYez8DiSl-36">
          <mxGeometry width="50" height="50" relative="1" as="geometry">
            <mxPoint x="240" y="940" as="sourcePoint" />
            <mxPoint x="400" y="860" as="targetPoint" />
          </mxGeometry>
        </mxCell>
        <mxCell id="-iWui9JQwaAtYez8DiSl-148" value="" style="endArrow=classic;html=1;rounded=0;exitX=1;exitY=0.5;exitDx=0;exitDy=0;entryX=0;entryY=0.5;entryDx=0;entryDy=0;" edge="1" parent="1" source="-iWui9JQwaAtYez8DiSl-16" target="-iWui9JQwaAtYez8DiSl-15">
          <mxGeometry width="50" height="50" relative="1" as="geometry">
            <mxPoint x="510" y="600" as="sourcePoint" />
            <mxPoint x="560" y="550" as="targetPoint" />
            <Array as="points">
              <mxPoint x="720" y="460" />
              <mxPoint x="720" y="2190" />
              <mxPoint x="220" y="2190" />
              <mxPoint x="220" y="380" />
            </Array>
          </mxGeometry>
        </mxCell>
        <mxCell id="-iWui9JQwaAtYez8DiSl-151" value="" style="endArrow=none;html=1;rounded=0;exitX=1;exitY=0.5;exitDx=0;exitDy=0;" edge="1" parent="1" source="-iWui9JQwaAtYez8DiSl-15">
          <mxGeometry width="50" height="50" relative="1" as="geometry">
            <mxPoint x="510" y="440" as="sourcePoint" />
            <mxPoint x="520" y="380" as="targetPoint" />
          </mxGeometry>
        </mxCell>
        <mxCell id="-iWui9JQwaAtYez8DiSl-152" value="return" style="rounded=1;whiteSpace=wrap;html=1;" vertex="1" parent="1">
          <mxGeometry x="520" y="360" width="80" height="40" as="geometry" />
        </mxCell>
        <mxCell id="-iWui9JQwaAtYez8DiSl-153" value="Нет" style="text;html=1;align=center;verticalAlign=middle;whiteSpace=wrap;rounded=0;" vertex="1" parent="1">
          <mxGeometry x="270" y="1440" width="60" height="30" as="geometry" />
        </mxCell>
        <mxCell id="-iWui9JQwaAtYez8DiSl-154" value="Нет" style="text;html=1;align=center;verticalAlign=middle;whiteSpace=wrap;rounded=0;" vertex="1" parent="1">
          <mxGeometry x="278.75" y="1850" width="60" height="30" as="geometry" />
        </mxCell>
        <mxCell id="-iWui9JQwaAtYez8DiSl-155" value="" style="endArrow=none;html=1;rounded=0;entryX=0.5;entryY=1;entryDx=0;entryDy=0;" edge="1" parent="1" target="-iWui9JQwaAtYez8DiSl-91">
          <mxGeometry width="50" height="50" relative="1" as="geometry">
            <mxPoint x="240" y="1890" as="sourcePoint" />
            <mxPoint x="370" y="1750" as="targetPoint" />
            <Array as="points">
              <mxPoint x="338" y="1890" />
            </Array>
          </mxGeometry>
        </mxCell>
      </root>
    </mxGraphModel>
  </diagram>
</mxfile>
